<?xml version="1.0" encoding="iso-8859-1"?>
<!-- Generator: Adobe Illustrator 19.0.0, SVG Export Plug-In . SVG Version: 6.00 Build 0)  -->
<svg version="1.1" id="Layer_1" xmlns="http://www.w3.org/2000/svg" xmlns:xlink="http://www.w3.org/1999/xlink" x="0px" y="0px"
	 viewBox="0 0 512 512" style="enable-background:new 0 0 512 512;" xml:space="preserve">
<g>
	<path style="fill:#F5E038;" d="M180.074,246.448L44.139,230.933c-2.111-0.245-4.234,0.367-5.898,1.69
		c-1.664,1.322-2.735,3.253-2.976,5.366c-2.315,20.283,3.408,40.252,16.113,56.231c12.705,15.978,30.872,26.053,51.154,28.367
		c2.95,0.337,5.892,0.504,8.817,0.504c17.189-0.001,33.759-5.758,47.414-16.615c15.979-12.706,26.053-30.873,28.368-51.154
		C187.632,250.924,184.473,246.951,180.074,246.448z"/>
	<path style="fill:#F5E038;" d="M475.519,231.433c-0.927-4.33-5.19-7.088-9.517-6.161L332.215,253.92
		c-2.079,0.446-3.897,1.698-5.052,3.484c-1.155,1.785-1.554,3.955-1.109,6.035c7.675,35.837,39.457,60.432,74.717,60.432
		c5.282,0,10.648-0.554,16.017-1.703c19.962-4.274,37.064-16.067,48.157-33.204C476.038,271.826,479.793,251.393,475.519,231.433z"
		/>
</g>
<path style="fill:#F9C900;" d="M317.742,209.501c-28.474-14.238-60.788-16.533-90.988-6.467
	c-30.201,10.067-54.674,31.292-68.91,59.766c-14.237,28.474-16.534,60.787-6.466,90.988c10.067,30.201,31.292,54.674,59.766,68.91
	c17.062,8.531,35.213,12.571,53.106,12.571c43.747,0,85.935-24.155,106.793-65.871C400.431,310.62,376.521,238.889,317.742,209.501z
	"/>
<path style="fill:#F9AA0C;" d="M317.742,209.501c-28.474-14.238-60.788-16.533-90.988-6.467
	c-20.427,6.809-38.228,18.728-52.019,34.537c0.509,1.92,1.057,3.835,1.691,5.737c7.9,23.701,24.557,42.905,46.901,54.077
	c13.184,6.592,27.415,9.921,41.737,9.921c9.952,0,19.95-1.609,29.666-4.847c23.701-7.9,42.905-24.557,54.077-46.901
	c2.698-5.395,4.836-10.968,6.436-16.648C345.154,227.008,332.557,216.908,317.742,209.501z"/>
<path style="fill:#F9C900;" d="M353.883,164.149c-7.901-23.701-24.558-42.905-46.902-54.077
	c-22.346-11.173-47.705-12.975-71.403-5.074c-23.701,7.9-42.905,24.557-54.077,46.901c-11.173,22.345-12.975,47.704-5.075,71.404
	s24.557,42.905,46.901,54.077c13.184,6.592,27.415,9.921,41.737,9.921c9.952,0,19.95-1.609,29.666-4.847
	c23.701-7.9,42.905-24.557,54.077-46.901C359.981,213.208,361.783,187.85,353.883,164.149z"/>
<g>
	<path style="fill:#F1EDE8;" d="M407.179,340.207c-0.471-3.201-2.823-5.805-5.959-6.601c-3.135-0.793-6.442,0.373-8.385,2.961
		L368.45,369.08l-28.404-56.807c-1.359-2.715-4.133-4.432-7.17-4.432c-3.037,0-5.813,1.716-7.17,4.432l-29.231,58.461l-26.34-26.341
		c-1.7-1.698-4.069-2.547-6.459-2.309c-2.39,0.237-4.548,1.533-5.88,3.532l-26.542,39.813l-28.027-56.054
		c-1.277-2.556-3.82-4.238-6.672-4.416c-2.857-0.176-5.583,1.177-7.168,3.554l-27.919,41.879l-25.369-33.826
		c-1.942-2.589-5.25-3.755-8.385-2.961c-3.137,0.796-5.487,3.401-5.959,6.603c-1.409,9.559-2.123,18.63-2.123,26.956
		C119.63,447.027,184.603,512,264.466,512s144.835-64.973,144.835-144.835C409.302,358.833,408.588,349.763,407.179,340.207z"/>
	<path style="fill:#F1EDE8;" d="M402.638,184.655C390.599,108.936,332.481,0,258.667,0c-0.281,0-0.574,0.001-0.855,0.004
		c-74.213,0.847-130.231,111.641-140.581,187.902c-0.288,2.119,0.283,4.265,1.585,5.961l32.654,42.521
		c1.584,2.064,4.069,3.232,6.672,3.128c2.6-0.102,4.989-1.458,6.407-3.64l26.086-40.112l28.663,55.732
		c1.307,2.541,3.868,4.194,6.722,4.34c0.137,0.007,0.273,0.011,0.408,0.011c2.703,0,5.235-1.365,6.72-3.646l28.286-43.495
		l27.599,26.977c1.843,1.802,4.44,2.612,6.977,2.164c2.54-0.441,4.711-2.076,5.837-4.394l26.417-54.372l27.648,53.757
		c1.271,2.471,3.73,4.108,6.501,4.325c2.765,0.222,5.456-1.013,7.096-3.255l31.677-43.254
		C402.452,188.925,402.973,186.767,402.638,184.655z"/>
</g>
<g>
	<path style="fill:#E3DCD2;" d="M173.611,136.284c0-59.106,33.321-110.42,82.197-136.21
		c-73.215,2.797-128.32,112.262-138.576,187.832c-0.288,2.119,0.283,4.265,1.585,5.961l32.654,42.521
		c1.584,2.064,4.069,3.232,6.672,3.128c2.6-0.102,4.989-1.458,6.407-3.64l23.04-35.428
		C178.619,180.915,173.611,159.186,173.611,136.284z"/>
	<path style="fill:#E3DCD2;" d="M212.828,238.911l6.472,12.584c1.307,2.541,3.868,4.194,6.722,4.34
		c0.137,0.007,0.273,0.011,0.408,0.011c1.149,0,2.261-0.26,3.28-0.718C223.679,250.155,218.038,244.73,212.828,238.911z"/>
	<path style="fill:#E3DCD2;" d="M170.048,358.614c0-0.372,0.012-0.741,0.014-1.113l-8.594,12.891l-25.369-33.826
		c-1.942-2.589-5.25-3.755-8.385-2.961c-3.137,0.796-5.487,3.401-5.959,6.603c-1.409,9.559-2.123,18.63-2.123,26.956
		c0,79.862,64.973,144.835,144.835,144.835c0.295,0,0.588-0.01,0.882-0.011C208.883,484.058,170.048,425.876,170.048,358.614z"/>
</g>
<g>
</g>
<g>
</g>
<g>
</g>
<g>
</g>
<g>
</g>
<g>
</g>
<g>
</g>
<g>
</g>
<g>
</g>
<g>
</g>
<g>
</g>
<g>
</g>
<g>
</g>
<g>
</g>
<g>
</g>
</svg>
